<svg width="300" height="120" viewBox="0 0 152 67" fill="none" xmlns="http://www.w3.org/2000/svg">
<path d="M7.30798 66.3455L0 58.8928L22.7359 35.7064L30.0439 43.1591L7.30798 66.3455Z" fill="#14ac74"/>
<path d="M45.4718 58.8928L38.1639 66.3455L15.4279 43.1591L22.7359 35.7064L45.4718 58.8928Z" fill="#14ac74"/>
<path fill-rule="evenodd" clip-rule="evenodd" d="M39.9622 18.2209C39.9622 27.9225 32.2503 35.7871 22.7372 35.7871C13.224 35.7871 5.51208 27.9225 5.51208 18.2209C5.51208 8.51925 13.224 0.654541 22.7372 0.654541C32.2503 0.654541 39.9622 8.51925 39.9622 18.2209ZM34.3353 14.9418C34.3353 18.3697 31.6105 21.1486 28.2492 21.1486C24.8878 21.1486 22.163 18.3697 22.163 14.9418C22.163 11.5139 24.8878 8.73504 28.2492 8.73504C31.6105 8.73504 34.3353 11.5139 34.3353 14.9418ZM18.7334 6.07929C19.3495 5.92597 19.7272 5.29231 19.5767 4.66397C19.4264 4.03564 18.8051 3.65056 18.1889 3.80389C14.8077 4.64531 13.2344 6.47307 12.2829 7.65135C11.8797 8.15063 11.9498 8.88866 12.4394 9.2998C12.929 9.71095 13.6527 9.63951 14.0558 9.14025C14.873 8.12828 16.0523 6.7465 18.7334 6.07929Z" fill="#14ac74"/>
<path d="M33.8763 13.302C33.8763 15.1777 32.3853 16.6982 30.5461 16.6982C28.7069 16.6982 27.2159 15.1777 27.2159 13.302C27.2159 11.4264 28.7069 9.90588 30.5461 9.90588C32.3853 9.90588 33.8763 11.4264 33.8763 13.302Z" fill="#14ac74"/>
<path d="M61.6552 15.5155C60.8676 15.5155 60.2077 15.2659 59.6754 14.7666C59.1645 14.2456 58.9091 13.6051 58.9091 12.8453C58.9091 12.0854 59.1645 11.4558 59.6754 10.9565C60.2077 10.4355 60.8676 10.1749 61.6552 10.1749C62.4429 10.1749 63.0922 10.4355 63.6031 10.9565C64.1353 11.4558 64.4014 12.0854 64.4014 12.8453C64.4014 13.6051 64.1353 14.2456 63.6031 14.7666C63.0922 15.2659 62.4429 15.5155 61.6552 15.5155ZM63.8585 17.6649V35.7057H59.3881V17.6649H63.8585Z" fill="#000000"/>
<path d="M72.9297 21.41V30.1373C72.9297 30.7452 73.068 31.1902 73.3448 31.4724C73.6429 31.733 74.1324 31.8632 74.8137 31.8632H76.8893V35.7059H74.0792C70.3113 35.7059 68.4273 33.8388 68.4273 30.1048V21.41H66.3197V17.665H68.4273V13.2036H72.9297V17.665H76.8893V21.41H72.9297Z" fill="#000000"/>
<path d="M101.523 17.4045C103.695 17.4045 105.441 18.0884 106.76 19.4562C108.102 20.8022 108.772 22.6909 108.772 25.1224V35.706H104.301V25.7411C104.301 24.33 103.95 23.2554 103.248 22.5172C102.545 21.7574 101.587 21.3774 100.374 21.3774C99.1601 21.3774 98.1923 21.7574 97.4685 22.5172C96.7655 23.2554 96.4145 24.33 96.4145 25.7411V35.706H91.9441V25.7411C91.9441 24.33 91.5922 23.2554 90.8901 22.5172C90.188 21.7574 89.2298 21.3774 88.0164 21.3774C86.7812 21.3774 85.8021 21.7574 85.0783 22.5172C84.3761 23.2554 84.0251 24.33 84.0251 25.7411V35.706H79.5542V17.6651H84.0251V19.8469C84.5992 19.0871 85.3343 18.49 86.2281 18.0559C87.1436 17.6216 88.1436 17.4045 89.2298 17.4045C90.6131 17.4045 91.8483 17.7085 92.9336 18.3163C94.0198 18.9025 94.8605 19.7492 95.4563 20.8564C96.0312 19.8143 96.8613 18.9785 97.9467 18.3489C99.0539 17.7194 100.246 17.4045 101.523 17.4045Z" fill="#000000"/>
<path d="M117.118 21.41V30.1373C117.118 30.7452 117.257 31.1902 117.534 31.4724C117.832 31.733 118.321 31.8632 119.002 31.8632H121.078V35.7059H118.268C114.5 35.7059 112.616 33.8388 112.616 30.1048V21.41H110.508V17.665H112.616V13.2036H117.118V17.665H121.078V21.41H117.118Z" fill="#000000"/>
<path d="M128.213 20.3027C128.788 19.4343 129.575 18.7287 130.576 18.186C131.598 17.6432 132.758 17.3719 134.057 17.3719C135.568 17.3719 136.931 17.7517 138.144 18.5116C139.378 19.2714 140.347 20.357 141.05 21.7681C141.774 23.1575 142.135 24.7749 142.135 26.6203C142.135 28.4656 141.774 30.1047 141.05 31.5375C140.347 32.9487 139.378 34.045 138.144 34.8266C136.931 35.6081 135.568 35.9989 134.057 35.9989C132.737 35.9989 131.577 35.7383 130.576 35.2173C129.597 34.6746 128.81 33.9799 128.213 33.1332V35.7058H123.742V11.6079H128.213V20.3027ZM137.569 26.6203C137.569 25.5347 137.346 24.6013 136.898 23.8197C136.473 23.0164 135.898 22.4085 135.175 21.996C134.472 21.5836 133.706 21.3773 132.875 21.3773C132.066 21.3773 131.3 21.5944 130.576 22.0286C129.874 22.4411 129.299 23.049 128.851 23.8522C128.426 24.6555 128.213 25.5998 128.213 26.6854C128.213 27.7708 128.426 28.7152 128.851 29.5185C129.299 30.3218 129.874 30.9405 130.576 31.3747C131.3 31.7872 132.066 31.9934 132.875 31.9934C133.706 31.9934 134.472 31.7764 135.175 31.3421C135.898 30.9079 136.473 30.2892 136.898 29.486C137.346 28.6826 137.569 27.7274 137.569 26.6203Z" fill="#000000"/>
<path d="M147.823 36.1691C146.819 36.1691 145.986 35.8508 145.325 35.214C144.692 34.5496 144.375 33.733 144.375 32.7641C144.375 31.7952 144.692 30.9924 145.325 30.3557C145.986 29.6913 146.819 29.3591 147.823 29.3591C148.801 29.3591 149.607 29.6913 150.241 30.3557C150.876 30.9924 151.192 31.7952 151.192 32.7641C151.192 33.733 150.876 34.5496 150.241 35.214C149.607 35.8508 148.801 36.1691 147.823 36.1691Z" fill="#14ac74"/>
<path d="M60.0838 50.4864C60.0838 51.6853 60.6832 52.1212 61.7404 52.1212H62.6341V51.282H61.9039C61.2936 51.282 61.0756 51.075 61.0756 50.4864V46.9662H62.6341V46.1488H61.0756V44.6448H60.0838V46.1488H59.31V46.9662H60.0838V50.4864ZM66.3751 46.8899C67.3996 46.8899 68.2714 47.5329 68.2605 48.6991H64.4896C64.5986 47.5329 65.4051 46.8899 66.3751 46.8899ZM69.1651 50.2794H68.0971C67.8791 50.9224 67.3124 51.3801 66.4187 51.3801C65.4051 51.3801 64.555 50.7153 64.4787 49.5056H69.2523C69.2741 49.2985 69.285 49.1241 69.285 48.9061C69.285 47.2714 68.1516 46.0507 66.4187 46.0507C64.6749 46.0507 63.4652 47.2387 63.4652 49.1241C63.4652 51.0205 64.7185 52.2193 66.4187 52.2193C67.9009 52.2193 68.86 51.3692 69.1651 50.2794ZM70.2235 49.1241C70.2235 51.0205 71.4333 52.2193 73.1335 52.2193C74.6157 52.2193 75.5856 51.391 75.8908 50.2031H74.8227C74.6048 50.9551 74.0162 51.3801 73.1335 51.3801C72.0436 51.3801 71.2371 50.6063 71.2371 49.1241C71.2371 47.6637 72.0436 46.8899 73.1335 46.8899C74.0162 46.8899 74.6157 47.3477 74.8227 48.067H75.8908C75.5856 46.8136 74.6157 46.0507 73.1335 46.0507C71.4333 46.0507 70.2235 47.2496 70.2235 49.1241ZM77.2141 52.1212H78.2059V48.819C78.2059 47.5329 78.9034 46.9008 79.9169 46.9008C80.9196 46.9008 81.5844 47.522 81.5844 48.7427V52.1212H82.5653V48.601C82.5653 46.8899 81.5081 46.0398 80.1785 46.0398C79.3393 46.0398 78.5982 46.3777 78.2059 47.0098V44.0563H77.2141V52.1212ZM88.5556 52.1212H89.5365V48.601C89.5365 46.8899 88.4793 46.0398 87.0952 46.0398C86.2887 46.0398 85.5694 46.3777 85.1771 46.9989V46.1488H84.1853V52.1212H85.1771V48.819C85.1771 47.5329 85.8746 46.9008 86.8882 46.9008C87.8908 46.9008 88.5556 47.522 88.5556 48.7427V52.1212ZM96.8238 49.1241C96.8238 47.2387 95.5051 46.0507 93.8049 46.0507C92.1156 46.0507 90.786 47.2387 90.786 49.1241C90.786 51.0205 92.072 52.2193 93.7613 52.2193C95.4615 52.2193 96.8238 51.0205 96.8238 49.1241ZM91.7996 49.1241C91.7996 47.6201 92.7477 46.9117 93.794 46.9117C94.8185 46.9117 95.8102 47.6201 95.8102 49.1241C95.8102 50.639 94.7967 51.3474 93.7613 51.3474C92.7259 51.3474 91.7996 50.639 91.7996 49.1241ZM98.1278 52.1212H99.1195V44.0563H98.1278V52.1212ZM106.477 49.1241C106.477 47.2387 105.158 46.0507 103.458 46.0507C101.769 46.0507 100.439 47.2387 100.439 49.1241C100.439 51.0205 101.725 52.2193 103.415 52.2193C105.115 52.2193 106.477 51.0205 106.477 49.1241ZM101.453 49.1241C101.453 47.6201 102.401 46.9117 103.447 46.9117C104.472 46.9117 105.464 47.6201 105.464 49.1241C105.464 50.639 104.45 51.3474 103.415 51.3474C102.379 51.3474 101.453 50.639 101.453 49.1241ZM107.411 49.1132C107.411 50.966 108.642 52.2193 110.244 52.2193C111.334 52.2193 112.108 51.6417 112.467 50.9987V52.252C112.467 53.5271 111.672 54.2028 110.615 54.2028C109.634 54.2028 108.925 53.7124 108.707 52.9931H107.727C107.923 54.2682 109.045 55.0638 110.615 55.0638C112.369 55.0638 113.47 53.8977 113.47 52.252V46.1488H112.467V47.2387C112.119 46.5957 111.334 46.0507 110.244 46.0507C108.642 46.0507 107.411 47.2496 107.411 49.1132ZM112.467 49.1241C112.467 50.53 111.53 51.3474 110.44 51.3474C109.35 51.3474 108.424 50.5191 108.424 49.1132C108.424 47.7073 109.35 46.9117 110.44 46.9117C111.53 46.9117 112.467 47.74 112.467 49.1241ZM115.146 52.1212H116.138V46.1488H115.146V52.1212ZM115.658 45.1789C116.018 45.1789 116.312 44.8846 116.312 44.5031C116.312 44.1217 116.018 43.8274 115.658 43.8274C115.277 43.8274 114.983 44.1217 114.983 44.5031C114.983 44.8846 115.277 45.1789 115.658 45.1789ZM120.368 46.8899C121.392 46.8899 122.264 47.5329 122.253 48.6991H118.482C118.591 47.5329 119.398 46.8899 120.368 46.8899ZM123.158 50.2794H122.089C121.872 50.9224 121.305 51.3801 120.411 51.3801C119.398 51.3801 118.547 50.7153 118.471 49.5056H123.245C123.267 49.2985 123.277 49.1241 123.277 48.9061C123.277 47.2714 122.144 46.0507 120.411 46.0507C118.667 46.0507 117.458 47.2387 117.458 49.1241C117.458 51.0205 118.711 52.2193 120.411 52.2193C121.893 52.2193 122.852 51.3692 123.158 50.2794ZM128.881 50.4973C128.837 48.3612 125.371 49.135 125.371 47.7182C125.371 47.2387 125.807 46.8899 126.537 46.8899C127.333 46.8899 127.791 47.3259 127.834 47.9253H128.826C128.761 46.7591 127.889 46.0507 126.57 46.0507C125.24 46.0507 124.379 46.8027 124.379 47.7182C124.379 49.9415 127.911 49.1677 127.911 50.4973C127.911 50.9878 127.475 51.3801 126.69 51.3801C125.851 51.3801 125.339 50.9442 125.284 50.3666H124.26C124.325 51.4564 125.306 52.2193 126.701 52.2193C128.02 52.2193 128.881 51.4782 128.881 50.4973Z" fill="#000000"/>
</svg>
